{
  "accessors": [
    {
      "bufferView": 1,
      "componentType": 5126,
      "count": 3117,
      "max": [
        3.2892999649047852,
        3.1380600929260254,
        2.3526198863983154
      ],
      "min": [
        -9.1363801956176758,
        -2.8627500534057617,
        -2.003849983215332
      ],
      "type": "VEC3"
    },
    {
      "bufferView": 1,
      "byteOffset": 37404,
      "componentType": 5126,
      "count": 3117,
      "max": [
        1,
        1,
        1
      ],
      "min": [
        -1,
        -1,
        -1
      ],
      "type": "VEC3"
    },
    {
      "bufferView": 0,
      "componentType": 5125,
      "count": 9330,
      "max": [
        3116
      ],
      "min": [
        0
      ],
      "type": "SCALAR"
    }
  ],
  "asset": {
    "extras": {
      "author": "DeonWoodward (https://sketchfab.com/DeonWoodward)",
      "license": "CC-BY-4.0 (http://creativecommons.org/licenses/by/4.0/)",
      "source": "https://sketchfab.com/models/85a7db9dbc334129aa7cc60156082fe9",
      "title": "Red Lego Brick"
    },
    "generator": "Sketchfab-3.18.6",
    "version": "2.0"
  },
  "bufferViews": [
    {
      "buffer": 0,
      "byteLength": 37320,
      "byteOffset": 0,
      "name": "floatBufferViews",
      "target": 34963
    },
    {
      "buffer": 0,
      "byteLength": 74808,
      "byteOffset": 37320,
      "byteStride": 12,
      "name": "floatBufferViews",
      "target": 34962
    }
  ],
  "buffers": [
    {
      "byteLength": 112128,
      "uri": "scene.bin"
    }
  ],
  "materials": [
    {
      "doubleSided": true,
      "emissiveFactor": [
        0,
        0,
        0
      ],
      "name": "Material.003",
      "pbrMetallicRoughness": {
        "baseColorFactor": [
          0.80000007149999997,
          0.050862435300000002,
          0.034291695800000001,
          1
        ],
        "metallicFactor": 1,
        "roughnessFactor": 1
      }
    }
  ],
  "meshes": [
    {
      "name": "Cylinder.002_0",
      "primitives": [
        {
          "attributes": {
            "NORMAL": 1,
            "POSITION": 0
          },
          "indices": 2,
          "material": 0,
          "mode": 4
        }
      ]
    }
  ],
  "nodes": [
    {
      "children": [
        1
      ],
      "name": "RootNode (gltf orientation matrix)",
      "rotation": [
        -0.70710678118654746,
        -0,
        -0,
        0.70710678118654757
      ]
    },
    {
      "children": [
        2
      ],
      "name": "RootNode (model correction matrix)"
    },
    {
      "children": [
        3,
        5,
        7,
        9
      ],
      "name": "Root"
    },
    {
      "children": [
        4
      ],
      "matrix": [
        0.28167000000000003,
        0,
        0,
        0,
        0,
        0.28167000000000003,
        0,
        0,
        0,
        0,
        0.28167000000000003,
        0,
        0.82349000000000006,
        -0.19364000000000003,
        0.62179000000000018,
        1
      ],
      "name": "Cylinder.002"
    },
    {
      "mesh": 0,
      "name": "Cylinder.002_0"
    },
    {
      "children": [
        6
      ],
      "matrix": [
        0.81215999999999999,
        0,
        -0.58343,
        0,
        -0.40404000000000001,
        0.72139000000000009,
        -0.56245000000000001,
        0,
        0.42088000000000009,
        0.69253000000000009,
        0.58589000000000013,
        0,
        11.145119999999999,
        16.878450000000001,
        20.74737,
        1
      ],
      "name": "Spot"
    },
    {
      "name": "Spot"
    },
    {
      "children": [
        8
      ],
      "matrix": [
        1,
        0,
        0,
        0,
        0,
        1,
        0,
        0,
        0,
        0,
        1,
        0,
        -0.086650000000000019,
        1.62043,
        14.097849999999999,
        1
      ],
      "name": "Sun"
    },
    {
      "name": "Sun"
    },
    {
      "children": [
        10
      ],
      "matrix": [
        1,
        0,
        0,
        0,
        0,
        1,
        0,
        0,
        0,
        0,
        1,
        0,
        1.2177899999999997,
        0.69028000000000012,
        4.4410300000000005,
        1
      ],
      "name": "Point"
    },
    {
      "name": "Point"
    }
  ],
  "scene": 0,
  "scenes": [
    {
      "name": "OSG_Scene",
      "nodes": [
        0
      ]
    }
  ]
}

